# xmcd
#
# Track frame offsets:
#	150
#	1455
#	13834
#	31120
#	45415
#	59412
#	76839
#	86332
#	109419
#	122418
#	133678
#	135915
#	149980
#	162810
#	181433
#	193972
#	206612
#	223118
#	238143
#	253809
#	272326
#	287875
#
# Disc length: 4035 seconds
#
# Revision: 1
# Processed by: cddbd v1.5.2PL0 Copyright (c) Steve Scherf et al.
# Submitted via: audiograbber 1.83.01
#
DISCID=430fc116
DTITLE=Singin´ Simon - Die Veränderung der Zeit
DYEAR=2007
DGENRE=Acoustic
TTITLE0=intro
TTITLE1=neuanfang
TTITLE2=veränderung der zeit
TTITLE3=geldscheissender elefant
TTITLE4=knalln wir die ab
TTITLE5=ehevertrag
TTITLE6=einsame erscheinung
TTITLE7=eine erkenntnis
TTITLE8=ganz wie man will
TTITLE9=lovesong
TTITLE10=interlude
TTITLE11=paul der baum
TTITLE12=wenn das ufo wieder kommt
TTITLE13=bis zu dir
TTITLE14=frag mich nicht
TTITLE15=unbekannter jesus
TTITLE16=lenny und josefine
TTITLE17=in diesem wald
TTITLE18=wieder zu spät
TTITLE19=papst
TTITLE20=weisse wand
TTITLE21=selber schuld
EXTD=
EXTT0=
EXTT1=
EXTT2=
EXTT3=
EXTT4=
EXTT5=
EXTT6=
EXTT7=
EXTT8=
EXTT9=
EXTT10=
EXTT11=
EXTT12=
EXTT13=
EXTT14=
EXTT15=
EXTT16=
EXTT17=
EXTT18=
EXTT19=
EXTT20=
EXTT21=
PLAYORDER=
